<?xml version="1.0" standalone="no"?>
<!DOCTYPE svg PUBLIC "-//W3C//DTD SVG 20010904//EN"
 "http://www.w3.org/TR/2001/REC-SVG-20010904/DTD/svg10.dtd">
<svg version="1.0" xmlns="http://www.w3.org/2000/svg"
 width="938.000000pt" height="938.000000pt" viewBox="0 0 938.000000 938.000000"
 preserveAspectRatio="xMidYMid meet">

<g transform="translate(0.000000,938.000000) scale(0.100000,-0.100000)"
fill="#dc2625" stroke="none">
<path d="M4687 9333 c-3 -5 -10 -71 -16 -147 -6 -75 -13 -140 -15 -144 -2 -4
-9 -52 -15 -107 -7 -55 -18 -125 -26 -156 -8 -31 -19 -83 -24 -115 -11 -71
-35 -176 -62 -264 -10 -36 -19 -71 -19 -78 0 -14 -88 -281 -143 -432 -37 -100
-50 -131 -102 -245 -80 -171 -102 -216 -158 -320 -50 -94 -88 -158 -222 -378
-36 -60 -215 -309 -281 -390 -256 -319 -650 -700 -899 -870 -33 -22 -90 -63
-127 -91 -37 -28 -88 -64 -113 -81 -26 -16 -65 -42 -88 -57 -23 -15 -58 -36
-77 -46 -19 -11 -84 -48 -145 -83 -60 -36 -155 -86 -210 -113 -55 -27 -140
-69 -188 -93 -49 -23 -94 -43 -100 -43 -7 0 -25 -7 -42 -16 -28 -14 -90 -39
-210 -83 -98 -37 -245 -84 -320 -103 -22 -5 -60 -16 -86 -24 -25 -8 -67 -18
-95 -23 -27 -5 -78 -16 -114 -24 -196 -46 -393 -76 -628 -96 -56 -4 -105 -11
-108 -14 -17 -17 15 -27 86 -27 44 0 126 -9 182 -20 57 -11 120 -20 141 -20
21 0 77 -9 125 -19 48 -11 123 -27 167 -36 184 -38 212 -45 250 -59 22 -8 49
-15 60 -16 29 -1 271 -80 433 -141 227 -86 566 -251 737 -358 33 -21 94 -59
135 -84 41 -25 101 -64 132 -86 32 -22 88 -62 125 -87 221 -153 518 -416 729
-645 397 -431 662 -833 921 -1399 55 -118 63 -138 63 -149 0 -6 9 -30 19 -53
35 -80 126 -353 151 -453 5 -22 25 -101 45 -175 19 -74 35 -147 35 -161 0 -15
7 -46 15 -69 8 -24 22 -100 30 -169 9 -69 18 -133 20 -141 3 -8 9 -75 14 -148
5 -74 12 -137 16 -140 14 -14 24 26 30 117 8 122 51 429 70 501 8 30 15 66 16
80 0 14 14 75 30 135 17 61 36 135 43 165 14 60 41 145 63 200 7 19 20 58 27
85 14 47 26 81 77 207 12 29 29 73 39 98 30 80 135 299 199 417 28 52 187 323
210 358 126 194 318 447 440 584 217 242 528 527 796 728 88 67 417 279 525
340 234 131 567 278 855 378 135 46 399 115 580 150 39 8 104 21 145 29 130
26 293 48 411 54 65 4 114 11 114 17 0 6 -38 13 -85 17 -299 26 -640 86 -880
154 -47 13 -90 24 -97 24 -7 0 -27 6 -45 14 -18 7 -73 26 -123 41 -114 36
-301 101 -340 120 -16 8 -59 26 -95 40 -85 35 -470 233 -537 276 -29 19 -72
45 -95 59 -23 14 -99 63 -168 109 -337 227 -624 472 -882 756 -55 61 -115 126
-132 145 -18 19 -45 53 -61 75 -16 22 -55 72 -86 110 -224 279 -517 783 -650
1118 -11 26 -28 71 -40 100 -57 144 -95 251 -139 397 -12 41 -30 102 -40 135
-11 33 -22 78 -26 100 -3 22 -12 60 -19 85 -39 138 -104 561 -105 690 0 63
-11 102 -23 83z"/>
</g>
</svg>
